<mxfile host="app.diagrams.net" modified="2024-05-21T08:38:28.839Z" agent="Mozilla/5.0 (Windows NT 10.0; Win64; x64) AppleWebKit/537.36 (KHTML, like Gecko) Chrome/124.0.0.0 Safari/537.36" version="24.4.4" etag="1Sdy2Kars_icKtEEbLGy" type="github">
  <diagram name="Trang-1" id="Jk7YjpE81mU3Dy-RQoiX">
    <mxGraphModel>
      <root>
        <mxCell id="0" />
        <mxCell id="1" parent="0" />
      </root>
    </mxGraphModel>
  </diagram>
</mxfile>
